<svg xmlns="http://www.w3.org/2000/svg" viewBox="0 0 445.8 148.69"><defs><style>.a{fill:#f04b4d;}.b{fill:#2d3d4a;}</style></defs><path class="a" d="M187.91,66a18,18,0,0,0,7.18-6.57,17.8,17.8,0,0,0,2.6-9.58V20.76H186.5V49.22a9,9,0,0,1-4.42,7.85,8.74,8.74,0,0,1-4.55,1.18,8.32,8.32,0,0,1-4.39-1.18,8.52,8.52,0,0,1-3.1-3.23,9.42,9.42,0,0,1-1.15-4.62V20.76h-11.6V49.82a17.8,17.8,0,0,0,2.6,9.58A18.1,18.1,0,0,0,167.07,66a23.82,23.82,0,0,0,20.84,0Z"/><path class="a" d="M231.14,68.64a24.39,24.39,0,0,0,8.77-1.55,21.37,21.37,0,0,0,7-4.32,19.37,19.37,0,0,0,4.62-6.57,20.92,20.92,0,0,0,1.65-8.4c0-.4,0-1,0-1.82s-.06-1.64-.1-2.5a18.2,18.2,0,0,0-.2-2H230.67v9h11.5a7.35,7.35,0,0,1-.78,2.87A8.94,8.94,0,0,1,239.23,56a10.4,10.4,0,0,1-3.2,1.82,11.46,11.46,0,0,1-3.95.67,14,14,0,0,1-5.56-1.11,13.62,13.62,0,0,1-4.48-3,13.9,13.9,0,0,1-3-4.55A14.74,14.74,0,0,1,218,44.16a15.43,15.43,0,0,1,1-5.63A13.52,13.52,0,0,1,221.87,34a13.19,13.19,0,0,1,9.74-4.08,14.15,14.15,0,0,1,4.32.64,17.7,17.7,0,0,1,3.81,1.72,19.74,19.74,0,0,1,3.47,2.7l6.95-7.35a20.31,20.31,0,0,0-4.79-4.05,25.57,25.57,0,0,0-6.31-2.77,26.37,26.37,0,0,0-7.38-1,28.08,28.08,0,0,0-10.22,1.82,24.41,24.41,0,0,0-8.12,5.13,22.85,22.85,0,0,0-5.3,7.72,24.88,24.88,0,0,0-1.85,9.68,26.51,26.51,0,0,0,1.75,9.74A22.47,22.47,0,0,0,213,61.69a23,23,0,0,0,7.89,5.13A27.64,27.64,0,0,0,231.14,68.64Z"/><polygon class="a" points="150.42 57.85 129.37 57.85 129.37 20.76 117.91 20.76 117.91 67.96 150.42 67.96 150.42 57.85"/><path class="a" d="M326.7,20.76,308,68h11.33l3.37-9H340l3.36,9H355l-18.55-47.2Zm-.76,29.54,2.31-6.21c.36-1.12.75-2.21,1.15-3.27s.78-2.11,1.11-3.17.6-1.9.9-2.86c.29.94.58,1.89.89,2.86.36,1.15.72,2.26,1.08,3.34s.72,2.09,1.08,3l2.33,6.28Z"/><path class="a" d="M403.31,43.48a16.06,16.06,0,0,0-.2-2H380.92v9h11.51a7.35,7.35,0,0,1-.78,2.87A8.94,8.94,0,0,1,389.49,56a10.52,10.52,0,0,1-3.2,1.82,11.5,11.5,0,0,1-4,.67,14,14,0,0,1-5.56-1.11,13.75,13.75,0,0,1-7.46-7.59,14.74,14.74,0,0,1-1.07-5.66,15.23,15.23,0,0,1,1-5.63,13.28,13.28,0,0,1,12.61-8.6,14,14,0,0,1,4.31.64A17.7,17.7,0,0,1,390,32.29a19.8,19.8,0,0,1,3.48,2.7l6.94-7.35a20.25,20.25,0,0,0-4.78-4.05,25.57,25.57,0,0,0-6.31-2.77,26.48,26.48,0,0,0-7.38-1,28,28,0,0,0-10.22,1.82,24.36,24.36,0,0,0-8.13,5.13,22.83,22.83,0,0,0-5.29,7.72,24.71,24.71,0,0,0-1.86,9.68,26.51,26.51,0,0,0,1.76,9.74,22.44,22.44,0,0,0,5.05,7.79,23.11,23.11,0,0,0,7.9,5.13,27.6,27.6,0,0,0,10.25,1.82,24.34,24.34,0,0,0,8.76-1.55,21.42,21.42,0,0,0,7-4.32,19.65,19.65,0,0,0,4.62-6.57,20.92,20.92,0,0,0,1.65-8.4c0-.4,0-1,0-1.82S403.36,44.34,403.31,43.48Z"/><polygon class="a" points="423.34 58.19 423.34 48.61 442.09 48.61 442.09 39.3 423.34 39.3 423.34 30.54 445.13 30.54 445.13 20.76 412.22 20.76 412.22 67.96 445.8 67.96 445.8 58.19 423.34 58.19"/><path class="a" d="M283.88,68.64a24.34,24.34,0,0,0,8.76-1.55,21.42,21.42,0,0,0,7-4.32,19.37,19.37,0,0,0,4.62-6.57,20.92,20.92,0,0,0,1.65-8.4c0-.4,0-1,0-1.82s-.06-1.64-.1-2.5a17.82,17.82,0,0,0-.21-2H283.41v9h11.5a7.35,7.35,0,0,1-.78,2.87A8.94,8.94,0,0,1,292,56a10.52,10.52,0,0,1-3.2,1.82,11.46,11.46,0,0,1-3.95.67,14,14,0,0,1-5.56-1.11,13.69,13.69,0,0,1-7.45-7.59,14.74,14.74,0,0,1-1.08-5.66,15.23,15.23,0,0,1,1-5.63,13.28,13.28,0,0,1,12.61-8.6,14.15,14.15,0,0,1,4.32.64,18.15,18.15,0,0,1,3.81,1.72A19.74,19.74,0,0,1,296,35l6.95-7.35a20.31,20.31,0,0,0-4.79-4.05,25.57,25.57,0,0,0-6.31-2.77,26.43,26.43,0,0,0-7.38-1,28,28,0,0,0-10.22,1.82,24.46,24.46,0,0,0-8.13,5.13,23,23,0,0,0-5.29,7.72,24.7,24.7,0,0,0-1.85,9.68,26.51,26.51,0,0,0,1.75,9.74,22.33,22.33,0,0,0,5.06,7.79,23,23,0,0,0,7.89,5.13A27.6,27.6,0,0,0,283.88,68.64Z"/><path class="b" d="M154.63,87.61a21.5,21.5,0,0,0-7.45-4.89A25.42,25.42,0,0,0,137.67,81H117.91v47.21h19.76a25.62,25.62,0,0,0,9.51-1.72,21.86,21.86,0,0,0,7.45-4.86,21.37,21.37,0,0,0,4.82-7.48,26.11,26.11,0,0,0,1.69-9.55,25.82,25.82,0,0,0-1.69-9.51A21.74,21.74,0,0,0,154.63,87.61Zm-6,22.52a12.19,12.19,0,0,1-2.46,4.25,11.1,11.1,0,0,1-3.81,2.73,12.48,12.48,0,0,1-5.06,1h-8v-27h8a12.48,12.48,0,0,1,5.06,1,11.23,11.23,0,0,1,3.81,2.73,12.28,12.28,0,0,1,2.46,4.25,17.82,17.82,0,0,1,0,11.06Z"/><path class="b" d="M299.69,83a15.4,15.4,0,0,0-7.92-2H271.4v47.21h11.47V112.43h8.9a15.06,15.06,0,0,0,7.92-2.09,15.51,15.51,0,0,0,5.53-5.7,16.29,16.29,0,0,0,2.06-8.2,15.33,15.33,0,0,0-2.06-7.89A15.12,15.12,0,0,0,299.69,83ZM294.8,99.61a5.59,5.59,0,0,1-1.95,2,5.12,5.12,0,0,1-2.7.74h-7.49V91.11h7.49a5.47,5.47,0,0,1,2.7.68,5.2,5.2,0,0,1,1.95,1.89,5.54,5.54,0,0,1,.74,3A5.74,5.74,0,0,1,294.8,99.61Z"/><path class="b" d="M199.44,109.59a15,15,0,0,0,5.74-5.56,15.44,15.44,0,0,0,2.09-8,14.48,14.48,0,0,0-2.09-7.72A14.87,14.87,0,0,0,199.41,83a17.2,17.2,0,0,0-8.19-2H170v47.21H180.9V111.62h5.89l9.35,16.59h13.08L198.65,110C198.92,109.87,199.18,109.74,199.44,109.59Zm-18.54-19h8.29a8.24,8.24,0,0,1,3.68.74,5.25,5.25,0,0,1,2.32,2.12,6.21,6.21,0,0,1,.81,3.2,7.15,7.15,0,0,1-.7,3.24,5.13,5.13,0,0,1-2,2.19,5.89,5.89,0,0,1-3.07.78h-9.3Z"/><path class="b" d="M255.62,86.87a23.15,23.15,0,0,0-7.76-5.13,27.16,27.16,0,0,0-19.55,0,23.23,23.23,0,0,0-12.88,12.88,27.19,27.19,0,0,0,0,19.56,23.23,23.23,0,0,0,12.88,12.88,25.81,25.81,0,0,0,9.84,1.82,25.43,25.43,0,0,0,9.71-1.82,23.15,23.15,0,0,0,7.76-5.13,22.79,22.79,0,0,0,5.09-7.78,27.53,27.53,0,0,0,0-19.53A22.86,22.86,0,0,0,255.62,86.87Zm-5.73,23a13,13,0,0,1-2.67,4.35,11.93,11.93,0,0,1-4,2.87,12.76,12.76,0,0,1-14.27-2.83,12.35,12.35,0,0,1-2.66-4.35,16.07,16.07,0,0,1-.91-5.5,15.72,15.72,0,0,1,.91-5.46,12.53,12.53,0,0,1,2.66-4.35A12.38,12.38,0,0,1,233,91.72a13.36,13.36,0,0,1,10.19,0,11.93,11.93,0,0,1,4,2.87,13,13,0,0,1,2.67,4.35,16.33,16.33,0,0,1,0,10.92Z"/><polygon class="b" points="50.25 116.45 47.41 132.43 0 132.43 10.3 74.42 28.88 74.42 21.42 116.45 50.25 116.45"/><path class="a" d="M99,80.79,91.18,125a28.76,28.76,0,0,1-28.32,23.72H44.52l2.89-16.26h15.3A10.39,10.39,0,0,0,73,123.84l6.81-38.35A9.42,9.42,0,0,0,70.5,74.42H28.89l2.84-16,.08-.43H79.94A19.39,19.39,0,0,1,99,80.79Z"/><path class="b" d="M25.43,0A14,14,0,0,1,39.19,16.41h0L34.64,42,31.8,58H13.22l7.39-41.6L23.52,0Z"/></svg>